<svg width="270" height="48" xmlns="http://www.w3.org/2000/svg">
    <g fill="none" fill-rule="evenodd">
        <path fill="#038541" d="M59.154 11.582h20.032v5.274H64.942v5.613h12.553v5.273H64.942V37.95h-5.788V11.582M81.704 17.76h5.712v4.068c.577-1.406 1.372-2.517 2.387-3.334 1.015-.815 2.362-1.186 4.04-1.11v5.988h-.3c-1.905 0-3.401.579-4.492 1.734-1.09 1.155-1.635 2.95-1.635 5.386v7.458h-5.712V17.76M108.577 26.274c-.176-1.281-.627-2.318-1.353-3.109-.727-.79-1.692-1.186-2.894-1.186-1.203 0-2.174.39-2.913 1.167-.74.78-1.222 1.822-1.447 3.128h8.607zm-3.684 12.128c-1.503 0-2.9-.25-4.19-.753a9.687 9.687 0 0 1-3.345-2.147 9.884 9.884 0 0 1-2.2-3.315c-.525-1.28-.788-2.687-.788-4.219v-.075c0-1.432.244-2.787.733-4.068a10.341 10.341 0 0 1 2.048-3.353 9.564 9.564 0 0 1 3.157-2.26c1.228-.552 2.568-.829 4.022-.829 1.678 0 3.131.302 4.36.904 1.227.603 2.248 1.413 3.062 2.43a10.128 10.128 0 0 1 1.805 3.503 14.532 14.532 0 0 1 .563 4.84 20.18 20.18 0 0 1-.056.792h-14.019c.275 1.305.846 2.291 1.71 2.957.865.665 1.936.998 3.213.998.953 0 1.805-.163 2.556-.49.752-.326 1.528-.853 2.33-1.582l3.27 2.9a10.139 10.139 0 0 1-3.457 2.769c-1.353.665-2.945.998-4.774.998zM130.112 26.274c-.175-1.281-.626-2.318-1.352-3.109-.728-.79-1.692-1.186-2.895-1.186s-2.174.39-2.912 1.167c-.74.78-1.222 1.822-1.447 3.128h8.606zm-3.683 12.128c-1.504 0-2.9-.25-4.19-.753a9.692 9.692 0 0 1-3.346-2.147 9.89 9.89 0 0 1-2.198-3.315c-.526-1.28-.79-2.687-.79-4.219v-.075c0-1.432.245-2.787.733-4.068a10.358 10.358 0 0 1 2.048-3.353 9.574 9.574 0 0 1 3.158-2.26c1.227-.552 2.568-.829 4.021-.829 1.679 0 3.132.302 4.36.904 1.228.603 2.249 1.413 3.063 2.43a10.127 10.127 0 0 1 1.804 3.503 14.514 14.514 0 0 1 .564 4.84c-.013.252-.032.515-.056.792h-14.02c.276 1.305.847 2.291 1.711 2.957.864.665 1.935.998 3.213.998.952 0 1.804-.163 2.556-.49.752-.326 1.528-.853 2.33-1.582l3.27 2.9a10.139 10.139 0 0 1-3.458 2.769c-1.353.665-2.944.998-4.773.998zM148.942 33.468c.676 0 1.31-.132 1.898-.396a4.734 4.734 0 0 0 1.56-1.13 5.483 5.483 0 0 0 1.071-1.752c.263-.677.395-1.443.395-2.297v-.075c0-.83-.132-1.588-.395-2.279a5.449 5.449 0 0 0-1.071-1.77 4.75 4.75 0 0 0-1.56-1.131 4.591 4.591 0 0 0-1.898-.395c-.676 0-1.31.131-1.898.395a4.546 4.546 0 0 0-1.541 1.13 5.638 5.638 0 0 0-1.053 1.771c-.263.69-.394 1.45-.394 2.279v.075c0 .828.131 1.588.394 2.279.264.691.614 1.28 1.053 1.77a4.531 4.531 0 0 0 3.439 1.526zM138.418 17.76h5.713v2.9a9.062 9.062 0 0 1 2.537-2.354c.99-.615 2.237-.923 3.74-.923 1.177 0 2.317.226 3.42.678a8.466 8.466 0 0 1 2.931 2.016c.852.891 1.535 1.984 2.049 3.277.513 1.293.77 2.781.77 4.464v.075c0 1.682-.257 3.17-.77 4.463-.514 1.295-1.19 2.386-2.03 3.278a8.286 8.286 0 0 1-2.912 2.015 9.032 9.032 0 0 1-3.458.678c-1.529 0-2.788-.301-3.777-.904-.99-.603-1.823-1.306-2.5-2.11v8.664h-5.713V17.76zM169.703 34.371c1.36 0 2.449-.326 3.267-.979.819-.652 1.228-1.506 1.228-2.561v-1.017a8.868 8.868 0 0 0-1.68-.547 9.097 9.097 0 0 0-1.984-.206c-1.233 0-2.203.239-2.908.715-.705.478-1.057 1.168-1.057 2.072v.076c0 .778.289 1.381.868 1.808.579.427 1.335.64 2.266.64zm-1.706 3.956a8.902 8.902 0 0 1-2.688-.396 6.29 6.29 0 0 1-2.198-1.186 5.671 5.671 0 0 1-1.485-1.94c-.363-.765-.545-1.65-.545-2.655v-.076c0-1.105.2-2.059.602-2.863.4-.803.958-1.469 1.672-1.996.714-.528 1.566-.923 2.556-1.186.99-.264 2.086-.396 3.288-.396 1.028 0 1.923.075 2.688.226.764.15 1.509.352 2.236.602v-.339c0-1.205-.364-2.122-1.09-2.75-.727-.627-1.804-.941-3.232-.941-1.103 0-2.074.094-2.913.282-.84.189-1.723.459-2.65.81l-1.428-4.37a19.068 19.068 0 0 1 3.458-1.186c1.203-.288 2.655-.433 4.36-.433 1.578 0 2.925.195 4.04.584 1.115.39 2.035.948 2.762 1.676.752.753 1.303 1.677 1.654 2.769.35 1.092.527 2.317.527 3.672V37.95h-5.525v-2.185a7.925 7.925 0 0 1-2.519 1.865c-.977.465-2.167.697-3.57.697zM183.03 17.76h5.713v4.068c.577-1.406 1.372-2.517 2.387-3.334 1.015-.815 2.361-1.186 4.04-1.11v5.988h-.3c-1.905 0-3.402.579-4.492 1.734-1.09 1.155-1.635 2.95-1.635 5.386v7.458h-5.712V17.76M197.237 10.453h5.713v14.653l6.69-7.346h6.84l-7.667 7.948 7.93 12.242h-6.539l-5.262-8.25-1.992 2.11v6.14h-5.713V10.453M218.247 37.95h5.713V17.76h-5.713v20.19zm-.15-22.412h6.013v-5.085h-6.013v5.085zM227.83 17.76h5.713v2.862c.326-.426.683-.834 1.072-1.223.388-.39.82-.735 1.296-1.036a6.454 6.454 0 0 1 1.579-.716c.576-.176 1.227-.264 1.954-.264 2.18 0 3.865.666 5.055 1.997 1.19 1.331 1.785 3.164 1.785 5.5v13.07h-5.712V26.687c0-1.355-.3-2.379-.902-3.07-.602-.69-1.454-1.035-2.556-1.035-1.103 0-1.973.345-2.612 1.035-.64.691-.959 1.715-.959 3.07V37.95h-5.712V17.76M259.439 31.546c.7 0 1.353-.112 1.954-.338a4.595 4.595 0 0 0 1.56-.96c.438-.415.783-.91 1.033-1.49.25-.576.376-1.204.376-1.882V26.8c0-.679-.126-1.306-.376-1.884a4.469 4.469 0 0 0-1.033-1.488 4.602 4.602 0 0 0-1.56-.96 5.515 5.515 0 0 0-1.954-.34c-.702 0-1.348.114-1.936.34a4.63 4.63 0 0 0-1.54.96c-.44.414-.784.91-1.035 1.488a4.685 4.685 0 0 0-.375 1.884v.075c0 1.407.463 2.536 1.39 3.39.927.854 2.092 1.28 3.496 1.28zm-.677 12.506a20.08 20.08 0 0 1-4.736-.545 17.822 17.822 0 0 1-4.171-1.564l1.954-4.294c1.052.577 2.11 1.03 3.176 1.356 1.065.326 2.274.49 3.627.49 1.954 0 3.401-.465 4.34-1.394.94-.928 1.41-2.298 1.41-4.106v-.98c-.852 1.03-1.78 1.834-2.781 2.411-1.003.579-2.268.867-3.796.867a9.34 9.34 0 0 1-3.383-.622 8.344 8.344 0 0 1-2.856-1.827c-.827-.803-1.485-1.789-1.973-2.957-.489-1.167-.733-2.504-.733-4.011V26.8c0-1.507.25-2.845.751-4.012.501-1.168 1.166-2.153 1.992-2.957a8.37 8.37 0 0 1 2.857-1.827 9.25 9.25 0 0 1 3.345-.622c1.553 0 2.83.29 3.834.867a11.053 11.053 0 0 1 2.668 2.147V17.76H270v15.632c0 3.592-.852 6.24-2.556 7.948-.952.955-2.149 1.645-3.59 2.072-1.44.427-3.137.64-5.092.64zM43.209 1.345A1.518 1.518 0 0 0 41.526.01L1.342 4.695A1.52 1.52 0 0 0 .01 6.381l4.674 40.274c.097.834.85 1.431 1.683 1.335l30.757-3.586-1.083-9.337a1.668 1.668 0 0 1 1.462-1.85l9.279-1.082-3.573-30.79"/>
        <path fill="#FFF" d="m13.066 12.57 20.047-2.336.613 5.278-14.255 1.662.652 5.617 12.562-1.465.613 5.277-12.563 1.465 1.186 10.215-5.793.676-3.062-26.388"/>
        <path d="m47.882 41.62-1.1-9.485-9.28 1.082a1.668 1.668 0 0 0-1.461 1.85l1.083 9.337 9.427-1.099a1.52 1.52 0 0 0 1.331-1.686" fill="#6FEEBC"/>
    </g>
</svg>
