<svg width="112" height="28" viewBox="0 0 112 28" fill="none" xmlns="http://www.w3.org/2000/svg">
<g clip-path="url(#clip0)">
<path d="M37.94 17.71L39.76 16.73C40.6 18.34 41.86 19.11 43.54 19.11C45.22 19.11 46.34 18.55 46.34 17.29C46.34 16.1 45.5 15.54 43.19 14.84C40.53 14.07 38.36 13.3 38.36 10.71C38.36 8.33001 40.25 6.79001 43.05 6.79001C45.78 6.79001 47.39 8.12001 48.23 9.73001L46.55 10.92C45.71 9.52001 44.59 8.89001 43.05 8.89001C41.51 8.89001 40.67 9.45001 40.67 10.43C40.67 11.69 41.65 12.18 43.89 12.81C46.48 13.58 48.58 14.42 48.58 17.01C48.58 19.25 46.69 21.07 43.4 21.07C40.74 21.21 38.78 19.81 37.94 17.71Z" fill="#474C55"/>
<path d="M49.77 18.55C49.77 16.38 51.59 14.98 56.21 14.42V14.14C56.21 13.16 55.72 12.74 54.6 12.74C53.2 12.74 52.08 13.44 51.24 14.07L50.12 12.6C51.17 11.62 52.85 10.78 54.88 10.78C57.54 10.78 58.45 12.04 58.45 14.35V18.41C58.45 19.6 58.52 20.3 58.73 20.86H56.42C56.28 20.44 56.21 20.16 56.21 19.6C55.23 20.65 54.04 21 52.57 21C50.96 21.14 49.77 20.23 49.77 18.55ZM56.21 18.2V16.03C53.48 16.38 52.01 17.08 52.01 18.13C52.01 18.9 52.57 19.32 53.41 19.32C54.53 19.32 55.44 18.9 56.21 18.2Z" fill="#474C55"/>
<path d="M61.6001 20.93V12.88H59.9201V11.06H61.6001V10.08C61.6001 8.39998 62.3001 7.13998 64.8201 7.13998C65.2401 7.13998 66.0101 7.20998 66.1501 7.20998V8.95998C66.0101 8.88998 65.6601 8.88998 65.3801 8.88998C64.6101 8.88998 63.9101 9.09998 63.9101 10.15V11.06H66.0801V12.88H63.9101V20.93H61.6001Z" fill="#474C55"/>
<path d="M66.9201 16.03C66.9201 12.25 69.5801 10.85 71.6101 10.85C73.8501 10.85 75.9501 12.18 75.9501 16.17V16.73H69.1601C69.2301 18.55 70.3501 19.32 71.8201 19.32C73.0801 19.32 73.8501 18.9 74.6201 18.13L75.8101 19.32C74.7601 20.44 73.4301 21.14 71.6801 21.14C69.1601 21.14 66.9201 19.67 66.9201 16.03ZM73.8501 15.05C73.7101 13.51 72.9401 12.74 71.6101 12.74C70.4901 12.74 69.4401 13.37 69.2301 15.05H73.8501Z" fill="#474C55"/>
<path d="M77.9801 20.93V7.13998H79.6601V14.28L85.8901 7.13998H87.8501L83.0901 12.39L88.4801 20.93H86.5901L82.0401 13.65L79.6601 16.31V20.93H77.9801Z" fill="#878A8F"/>
<path d="M88.97 16.03C88.97 12.46 91.35 10.92 93.45 10.92C95.76 10.92 97.58 12.53 97.58 16.1V16.45H90.65C90.72 18.69 91.98 19.88 93.59 19.88C94.99 19.88 95.83 19.32 96.53 18.27L97.44 19.11C96.53 20.44 95.27 21.21 93.45 21.21C91.07 21.14 88.97 19.46 88.97 16.03ZM95.97 15.19C95.83 13.44 94.99 12.25 93.38 12.25C92.05 12.25 90.79 13.16 90.58 15.19H95.97Z" fill="#878A8F"/>
<path d="M98.2101 24.5L98.5601 23.24C98.8401 23.31 99.3301 23.38 100.03 23.38C101.01 23.38 101.5 22.96 101.92 21.98L102.27 21L98.4901 11.06H100.17L103.04 19.04H103.11L105.98 11.06H107.59L103.39 22.05C102.69 23.8 101.99 24.71 100.03 24.71C99.1901 24.71 98.6301 24.64 98.2101 24.5Z" fill="#878A8F"/>
<path d="M108.15 12.53C108.15 11.69 108.78 11.06 109.62 11.06C110.46 11.06 111.09 11.69 111.09 12.53C111.09 13.37 110.46 14 109.62 14C108.78 14 108.15 13.37 108.15 12.53ZM110.81 12.53C110.81 11.83 110.32 11.34 109.62 11.34C108.99 11.34 108.43 11.83 108.43 12.53C108.43 13.23 108.92 13.72 109.62 13.72C110.32 13.72 110.81 13.16 110.81 12.53ZM109.06 11.69H109.69C110.11 11.69 110.32 11.83 110.32 12.25C110.32 12.53 110.18 12.6 110.04 12.74L110.39 13.37H109.97L109.69 12.81H109.48V13.3H109.06V11.69ZM109.69 12.39C109.83 12.39 109.97 12.32 109.97 12.18C109.97 12.04 109.9 11.97 109.69 11.97H109.48V12.39H109.69Z" fill="#878A8F"/>
<path d="M28.91 28H14.91H0.910004V14V0H14.91H28.91V13.93V28Z" fill="white"/>
<path d="M18.69 19.88L17.99 19.04V19.88H15.96V18.69C15.68 18.76 15.4 18.83 15.05 18.83H14.7V19.88H11.76L11.27 19.18L10.78 19.88H6.09V15.12H10.29H10.92L11.41 15.82L11.9 15.12H28.91V0H0.910004V11.06L1.82 8.89H3.71L4.27 10.15V8.89H6.58L6.93 9.94L7.28 8.89H17.57V9.38C17.99 9.03 18.48 8.89 19.04 8.89H22.19L22.75 10.15V8.89H24.57L25.2 9.87V8.89H27.3V13.65H25.34L24.78 12.74V13.65H21.91L21.63 12.95H21L20.72 13.65H19.04C18.55 13.65 18.06 13.58 17.64 13.23V13.65H14.84L14.14 12.81V13.65H3.43L3.15 12.95H2.52L2.24 13.65H0.910004V28H28.91V19.6C28.63 19.81 28.28 19.88 27.86 19.88H18.69Z" fill="#0079C2"/>
<path d="M28.9099 15.89H27.2299C26.5299 15.89 26.1099 16.31 26.1099 16.94C26.1099 17.57 26.5299 17.92 27.1599 17.92H27.9299C28.1399 17.92 28.2799 18.06 28.2799 18.2C28.2799 18.41 28.1399 18.48 27.9299 18.48H26.2499V19.18H27.9299C28.4899 19.18 28.8399 18.9 28.9799 18.55C29.0499 18.41 29.0499 18.27 29.0499 18.13C29.0499 17.99 29.0499 17.85 28.9799 17.71C28.8399 17.36 28.4899 17.15 27.9999 17.15H27.2299C27.0199 17.15 26.8799 17.01 26.8799 16.87C26.8799 16.66 27.0199 16.59 27.2299 16.59H28.6299L28.9099 15.89ZM23.7999 16.87C23.7999 16.66 23.9399 16.59 24.1499 16.59H25.5499L25.8299 15.89H24.1499C23.4499 15.89 23.0299 16.31 23.0299 16.94C23.0299 17.57 23.4499 17.92 24.0799 17.92H24.8499C25.0599 17.92 25.1999 18.06 25.1999 18.2C25.1999 18.41 25.0599 18.48 24.8499 18.48H23.1699V19.18H24.8499C25.5499 19.18 25.9699 18.76 25.9699 18.13C25.9699 17.5 25.6199 17.15 24.9199 17.15H24.1499C23.9399 17.15 23.7999 17.01 23.7999 16.87ZM20.0899 19.18H22.7499V18.48H20.9299V17.85H22.7499V17.15H20.9299V16.59H22.7499V15.89H20.0899V19.18ZM19.8799 19.18L18.7599 17.99C19.3199 17.85 19.6699 17.5 19.6699 16.94C19.6699 16.31 19.2499 15.89 18.5499 15.89H16.7299V19.18H17.4999V17.99H17.8499L18.8299 19.18H19.8799ZM18.4799 17.29H17.5699V16.59H18.4799C18.7599 16.59 18.8999 16.73 18.8999 16.94C18.8299 17.15 18.6899 17.29 18.4799 17.29ZM16.3099 16.94C16.3099 16.31 15.8899 15.82 15.1899 15.82H13.3699V19.11H14.1399V17.99H15.1199C15.8899 18.06 16.3099 17.57 16.3099 16.94ZM15.5399 16.94C15.5399 17.15 15.3999 17.36 15.1199 17.36H14.1399V16.52H15.1199C15.3999 16.52 15.5399 16.73 15.5399 16.94ZM13.2299 19.18L11.8999 17.5L13.2299 15.89H12.2499L11.4099 16.87L10.5699 15.82H9.58994L10.9199 17.5L9.58994 19.18H10.5699L11.4099 18.13L12.2499 19.18H13.2299ZM6.85994 19.18H9.51994V18.48H7.62994V17.85H9.44994V17.15H7.62994V16.59H9.44994V15.89H6.85994V19.18Z" fill="#0D79BF"/>
<path d="M26.53 12.88V9.59002H25.76V11.34V11.76L25.55 11.41L24.36 9.66002H23.38V12.95H24.15V11.13V10.71L24.36 11.06L25.55 12.95H26.53V12.88ZM22.33 12.88H23.24L21.84 9.59002H20.79L19.39 12.88H20.23L20.51 12.18H22.05L22.33 12.88ZM21.84 11.55H20.79L21.07 10.78L21.28 10.29L21.49 10.78L21.84 11.55ZM19.04 10.36H19.88V9.66002H18.97C17.92 9.66002 17.36 10.36 17.36 11.27V11.34C17.36 12.32 17.92 12.95 18.9 12.95H18.97L19.32 12.25H19.11C18.55 12.25 18.27 11.9 18.27 11.34V11.27C18.2 10.71 18.48 10.36 19.04 10.36ZM16.17 12.88H16.94V11.2V9.52002H16.17V11.2V12.88ZM15.96 12.88L14.84 11.69C15.4 11.55 15.75 11.2 15.75 10.64C15.75 10.01 15.33 9.59002 14.63 9.59002H12.81V12.88H13.58V11.69H13.93L14.91 12.88H15.96ZM14.56 11.06H13.65V10.36H14.56C14.84 10.36 14.98 10.5 14.98 10.71C14.98 10.92 14.84 11.06 14.56 11.06ZM9.66 12.88H12.32V12.18H10.5V11.55H12.32V10.85H10.5V10.29H12.32V9.59002H9.66V12.88ZM8.26 12.88H9.03V9.59002H7.77L7.14 11.48L7 11.9L6.86 11.55L6.23 9.66002H4.97V12.95H5.74V10.78V10.29L5.88 10.78L6.65 12.95H7.35L8.12 10.78L8.26 10.29V10.78V12.88ZM3.92 12.88H4.83L3.43 9.59002H2.31L0.910004 12.88H1.75L2.03 12.18H3.57L3.92 12.88ZM3.36 11.55H2.31L2.59 10.78L2.8 10.29L3.01 10.78L3.36 11.55Z" fill="#0D79BF"/>
</g>
<defs>
<clipPath id="clip0">
<rect width="110.18" height="28" fill="white" transform="translate(0.910004)"/>
</clipPath>
</defs>
</svg>
