<svg width="128" height="36" viewBox="0 0 128 36" fill="none" xmlns="http://www.w3.org/2000/svg">
<path d="M28.4785 10.9242H20.6035V25.0758H28.4785V10.9242Z" fill="#FF5F00"/>
<path d="M21.1035 18C21.1022 16.6371 21.4111 15.2918 22.0066 14.0659C22.6022 12.84 23.4688 11.7657 24.5409 10.9242C23.2133 9.88061 21.6187 9.23162 19.9397 9.0514C18.2606 8.87118 16.5646 9.16701 15.0457 9.90507C13.5268 10.6431 12.2462 11.7937 11.3503 13.2251C10.4543 14.6566 9.97919 16.3113 9.97919 18C9.97919 19.6887 10.4543 21.3434 11.3503 22.7749C12.2462 24.2063 13.5268 25.3569 15.0457 26.0949C16.5646 26.833 18.2606 27.1288 19.9397 26.9486C21.6187 26.7684 23.2133 26.1194 24.5409 25.0758C23.4688 24.2343 22.6022 23.16 22.0066 21.9341C21.4111 20.7082 21.1022 19.3629 21.1035 18Z" fill="#EB001B"/>
<path d="M39.1022 18C39.1023 19.6887 38.6272 21.3434 37.7313 22.7748C36.8354 24.2063 35.5549 25.3569 34.036 26.0949C32.5171 26.833 30.8212 27.1288 29.1421 26.9486C27.4631 26.7684 25.8686 26.1194 24.5409 25.0758C25.6121 24.2335 26.4781 23.159 27.0735 21.9333C27.669 20.7076 27.9784 19.3627 27.9784 18C27.9784 16.6373 27.669 15.2924 27.0735 14.0667C26.4781 12.841 25.6121 11.7665 24.5409 10.9242C25.8686 9.88062 27.4631 9.23162 29.1421 9.0514C30.8212 8.87118 32.5171 9.16702 34.036 9.90509C35.5549 10.6432 36.8354 11.7937 37.7313 13.2252C38.6272 14.6566 39.1023 16.3113 39.1022 18Z" fill="#F79E1B"/>
<path d="M38.2436 23.5769V23.2872H38.3604V23.2282H38.0629V23.2872H38.1798V23.5769H38.2436ZM38.8212 23.5769V23.2276H38.7301L38.6251 23.4679L38.5202 23.2276H38.429V23.5769H38.4934V23.3134L38.5917 23.5406H38.6585L38.7569 23.3129V23.5769H38.8212Z" fill="#F79E1B"/>
<path d="M48.2688 27.0505H47.9356V24.0138V17.9398V11.8658V8.82901H48.2688V14.9028V20.9768V27.0505Z" fill="black"/>
<path d="M57.4927 23.5772H56.5574V12.8439H57.4927V23.5772ZM64.316 12.8439C65.1364 12.8322 65.9529 12.9592 66.731 13.2195C67.4072 13.4467 68.0286 13.8123 68.5557 14.2929C69.061 14.7645 69.4562 15.3417 69.7132 15.9833C70.2552 17.4186 70.2552 19.0023 69.7132 20.4377C69.4563 21.0794 69.0611 21.6566 68.5557 22.1282C68.0287 22.6089 67.4072 22.9744 66.731 23.2016C65.9529 23.462 65.1364 23.589 64.316 23.5772H60.3983V12.8439H64.316ZM61.3336 13.7332V22.6879H64.316C65.0191 22.7004 65.7192 22.5927 66.3861 22.3697C66.9475 22.1795 67.4622 21.8725 67.8963 21.4689C68.3086 21.0752 68.6259 20.5927 68.824 20.0581C69.243 18.862 69.243 17.559 68.824 16.3628C68.6253 15.8275 68.3082 15.3439 67.8963 14.9484C67.4635 14.543 66.9484 14.2358 66.3861 14.0475C65.7186 13.8271 65.0188 13.7209 64.316 13.7332L61.3336 13.7332ZM80.9908 12.7212C81.44 12.72 81.8878 12.7714 82.325 12.8745C82.7436 12.9729 83.1489 13.1208 83.5323 13.3153C83.9006 13.5019 84.2433 13.7351 84.5521 14.0092C84.8538 14.2774 85.1158 14.5872 85.3301 14.9292L84.5482 15.4505C84.3643 15.1695 84.1439 14.9143 83.8926 14.6916C83.6389 14.4661 83.3582 14.273 83.057 14.1165C82.746 13.9555 82.4165 13.8332 82.0758 13.7524C81.7204 13.6674 81.3562 13.625 80.9908 13.6259C80.381 13.6205 79.7759 13.7324 79.2083 13.9555C78.6719 14.1668 78.1842 14.4851 77.7747 14.8909C77.3616 15.3049 77.0357 15.7976 76.8165 16.3399C76.3513 17.5436 76.3513 18.8775 76.8165 20.0812C77.0357 20.6235 77.3616 21.1162 77.7747 21.5302C78.1842 21.936 78.6719 22.2543 79.2083 22.4655C79.7758 22.6887 80.381 22.8006 80.9908 22.7952C81.3547 22.7962 81.7174 22.7551 82.0718 22.6725C82.4115 22.5937 82.7399 22.4727 83.0494 22.3122C83.3506 22.1558 83.6313 21.9627 83.8851 21.7372C84.1376 21.5128 84.3582 21.2549 84.5406 20.9705L85.3072 21.5302C85.084 21.8656 84.8171 22.1698 84.5137 22.4349C84.2058 22.7032 83.8659 22.9324 83.5018 23.1172C83.1233 23.3092 82.723 23.4546 82.3096 23.5503C81.1435 23.8158 79.9246 23.7264 78.8096 23.2935C78.1588 23.0364 77.5658 22.6519 77.0655 22.1626C76.5677 21.669 76.1752 21.0796 75.9117 20.43C75.3547 19.0041 75.3547 17.4208 75.9117 15.9949C76.1746 15.3438 76.5672 14.753 77.0655 14.2583C77.5658 13.7691 78.1588 13.3846 78.8096 13.1275C79.5036 12.8526 80.2443 12.7146 80.9908 12.7212H80.9908ZM88.2051 17.6125C88.3421 17.3849 88.5113 17.1783 88.7073 16.9992C88.8945 16.8286 89.1048 16.6853 89.3321 16.5736C89.5565 16.4639 89.7933 16.3816 90.0374 16.3284C90.2792 16.2751 90.5259 16.2481 90.7735 16.2478C91.1937 16.243 91.6114 16.3117 92.0079 16.451C92.3646 16.5766 92.6919 16.7735 92.97 17.0298C93.242 17.2857 93.4541 17.5985 93.5911 17.9459C93.7412 18.3306 93.8154 18.7406 93.8096 19.1535V23.5772H92.9356V19.4219C92.9402 19.0884 92.8884 18.7566 92.7823 18.4405C92.6886 18.1632 92.534 17.9104 92.3299 17.7007C92.124 17.4946 91.8754 17.3363 91.6016 17.2368C91.2868 17.1247 90.9543 17.0702 90.6202 17.0758C90.2965 17.0733 89.9753 17.1318 89.6734 17.2483C89.3873 17.3583 89.1265 17.5253 88.9068 17.739C88.6866 17.9552 88.5119 18.2132 88.3931 18.4979C88.2651 18.8051 88.2011 19.1351 88.2051 19.4678V23.5772H87.3311V12.5371H88.2051L88.2051 17.6125ZM99.0076 16.2478C99.4677 16.2437 99.9234 16.3365 100.345 16.52C100.749 16.6962 101.112 16.9547 101.411 17.279C101.719 17.6188 101.96 18.0143 102.12 18.4444C102.298 18.9187 102.389 19.4213 102.388 19.9279C102.388 19.9943 102.387 20.057 102.385 20.1156C102.382 20.1745 102.378 20.232 102.373 20.2882H96.3243C96.3467 20.6755 96.4416 21.0552 96.6041 21.4075C96.7507 21.7221 96.9578 22.0048 97.2137 22.2393C97.4642 22.4669 97.7573 22.6428 98.076 22.7569C98.4093 22.8759 98.7609 22.9355 99.1148 22.9331C99.5819 22.9412 100.045 22.847 100.472 22.6571C100.873 22.4715 101.239 22.2172 101.553 21.9058L102.021 22.5038C101.808 22.7198 101.573 22.9125 101.319 23.0789C101.09 23.2277 100.846 23.3511 100.591 23.4468C100.347 23.5379 100.093 23.6021 99.8355 23.6385C99.579 23.6743 99.3203 23.6922 99.0613 23.6922C98.5626 23.6974 98.0677 23.6049 97.6045 23.4199C97.173 23.2473 96.7816 22.9876 96.4546 22.6571C96.127 22.3213 95.8713 21.9222 95.7032 21.4842C95.5193 21.0021 95.4283 20.4896 95.4349 19.9738C95.4295 19.4614 95.5219 18.9528 95.7071 18.475C95.877 18.0357 96.1323 17.6344 96.4583 17.2943C96.7802 16.963 97.1663 16.7008 97.5931 16.5238C98.0412 16.3376 98.5223 16.2438 99.0076 16.2478H99.0076ZM98.9923 17.0221C98.6471 17.0179 98.3044 17.0817 97.984 17.21C97.6862 17.3312 97.4143 17.5082 97.1829 17.7314C96.9487 17.9596 96.7577 18.2284 96.6194 18.5248C96.4702 18.8441 96.3756 19.1862 96.3397 19.5369H101.499C101.474 19.1838 101.388 18.8377 101.246 18.5133C101.117 18.2173 100.934 17.9482 100.706 17.7199C100.48 17.4961 100.213 17.3193 99.9188 17.1995C99.6247 17.0797 99.3098 17.0194 98.9923 17.0221V17.0221ZM107.418 16.2478C107.929 16.2429 108.436 16.3407 108.909 16.5353C109.357 16.7202 109.756 17.0047 110.078 17.3672L109.511 17.9575C109.238 17.6825 108.917 17.4602 108.564 17.302C108.195 17.1423 107.796 17.0626 107.395 17.0681C107.017 17.065 106.642 17.1394 106.294 17.2866C105.962 17.4273 105.661 17.6333 105.409 17.8924C105.154 18.157 104.955 18.4698 104.822 18.8123C104.541 19.5611 104.541 20.3864 104.822 21.1353C104.952 21.4747 105.15 21.7843 105.403 22.0452C105.656 22.3061 105.959 22.513 106.294 22.6533C106.642 22.8006 107.017 22.875 107.395 22.8718C107.803 22.8764 108.207 22.7927 108.579 22.6265C108.933 22.4673 109.256 22.2467 109.534 21.9749L110.078 22.5729C109.754 22.9338 109.353 23.218 108.905 23.4047C107.949 23.7867 106.883 23.788 105.926 23.4085C105.488 23.2304 105.091 22.9648 104.759 22.628C104.427 22.2913 104.166 21.8903 103.994 21.4497C103.631 20.498 103.631 19.4459 103.994 18.4942C104.166 18.0526 104.425 17.6506 104.758 17.3131C105.09 16.9756 105.487 16.7096 105.926 16.5315C106.399 16.3384 106.907 16.2419 107.418 16.2478H107.418ZM112.707 19.4065H113.88L116.916 16.3628H118.02L114.586 19.7669L118.082 23.5772H116.97L113.88 20.1962H112.707V23.5772H111.833V12.5371H112.707V19.4065Z" fill="black"/>
</svg>
